<?xml version="1.0" encoding="UTF-8"?>
<svg version="1.1" xmlns="http://www.w3.org/2000/svg" width="512" height="512">
<path d="M0 0 C3.16848541 1.93988903 4.48763558 3.33743677 5.58908081 6.91149902 C7.27230228 15.05625442 7.64876002 23.24925763 8.0703125 31.53125 C8.15663838 33.13296141 8.24347092 34.73464559 8.33078003 36.33630371 C8.51172502 39.68458974 8.68769697 43.03308729 8.85986328 46.38183594 C9.07798152 50.61987929 9.30668249 54.85726606 9.53901863 59.09455109 C9.71949476 62.40287989 9.89504523 65.7114566 10.06914902 69.02012634 C10.15159856 70.57949037 10.23527851 72.13878995 10.32034683 73.69801331 C10.92183167 84.80817328 11.0948333 95.87411999 11 107 C11.97783447 106.9002034 12.95566895 106.8004068 13.96313477 106.69758606 C39.50893107 104.10760062 65.50529886 101.64058218 91 106 C91.70624512 106.11827148 92.41249023 106.23654297 93.14013672 106.35839844 C107.20031787 108.84687004 122.24424077 114.02847746 132 125 C133.73631636 128.47263273 133.60190402 132.21193013 133 136 C130.81840855 138.75569447 129.12822506 140.43588747 126 142 C120.12845027 142.35122404 114.79613846 141.31537658 109.0625 140.125 C100.07502881 138.34004824 91.12981195 136.83622746 82 136 C81.04778564 135.91169922 80.09557129 135.82339844 79.11450195 135.73242188 C69.62902092 134.95057148 60.1907258 134.846451 50.67797852 134.86962891 C48.06976492 134.87498508 45.46172401 134.8696517 42.85351562 134.86328125 C41.1432288 134.86394235 39.43294208 134.86522416 37.72265625 134.8671875 C36.96904312 134.86516327 36.21542999 134.86313904 35.4389801 134.86105347 C27.939014 134.89238654 20.47692843 135.45545136 13 136 C13.02505615 136.87852127 13.0501123 137.75704254 13.07592773 138.66218567 C13.39828258 150.04524991 13.70509684 161.42869147 14 172.8125 C14.0237545 173.72908134 14.047509 174.64566269 14.07198334 175.59001923 C14.76722697 202.6040877 15.18876232 229.60173096 15.125 256.625 C15.12328796 257.35598026 15.12157593 258.08696053 15.11981201 258.84009171 C15.09780289 267.56016308 15.05891919 276.28009392 15 285 C15.99 284.67 16.98 284.34 18 284 C20.59262136 283.90196281 23.15736524 283.86033267 25.75 283.8671875 C26.53767761 283.86573227 27.32535522 283.86427704 28.13690186 283.86277771 C30.75798081 283.86050319 33.37893349 283.86690229 36 283.875 C36.9115686 283.87688324 37.82313721 283.87876648 38.7623291 283.88070679 C68.28047789 283.95148219 97.74425087 284.63895378 127.22399902 286.18734741 C129.6013152 286.31166381 131.97884227 286.43201551 134.35656738 286.54824829 C137.68265242 286.713472 141.00722412 286.89691305 144.33203125 287.0859375 C145.32380875 287.13291275 146.31558624 287.179888 147.3374176 287.22828674 C152.55889422 287.54848143 156.48588304 288.0973288 161 291 C164.24032062 294.67236337 164.46136895 298.13663141 164.2890625 302.8515625 C163.75385756 306.82943704 161.98889193 309.0770342 159.125 311.75 C155.22747059 314.04266436 150.88936744 314.15560121 146.44946289 314.43310547 C145.34638794 314.50353058 144.24331299 314.57395569 143.10681152 314.64651489 C141.30790466 314.75574783 141.30790466 314.75574783 139.47265625 314.8671875 C138.20401733 314.94653534 136.93537842 315.02588318 135.6282959 315.1076355 C132.1618321 315.32370881 128.69507391 315.53463994 125.22819901 315.7440033 C123.06189809 315.87503641 120.89567305 316.00726627 118.72946167 316.13977051 C97.35482082 317.44467531 75.97484231 318.61601127 54.58549118 319.65195465 C52.57227812 319.7495261 50.55910277 319.84785053 48.54592896 319.94622803 C44.78206921 320.12890349 41.01804681 320.30758956 37.25390625 320.484375 C36.15558472 320.53729706 35.05726318 320.59021912 33.92565918 320.64474487 C27.61171779 320.93385174 21.32042672 321.06522073 15 321 C15.00444122 321.57324005 15.00888245 322.1464801 15.01345825 322.73709106 C15.26276381 356.80205255 14.93666848 390.82875559 14.13027191 424.88454437 C14.0628576 427.73488038 13.9966107 430.58524185 13.93048096 433.43560791 C13.82409564 437.99050359 13.71348716 442.54527869 13.59936714 447.09998703 C13.55747949 448.77774499 13.51635063 450.45552212 13.47608757 452.13331985 C13.36581811 456.68029026 13.23478957 461.22575886 13.07381058 465.77122498 C13.02316624 467.30047518 12.98004881 468.82998769 12.94327927 470.3596344 C12.88586793 472.68507124 12.80373455 475.00851968 12.71655273 477.33300781 C12.70448068 478.03145184 12.69240862 478.72989586 12.67997074 479.44950485 C12.46698461 484.18473809 11.33902681 486.65600123 8 490 C4.79582279 491.6020886 1.47660568 491.49285215 -2 491 C-5.44312714 488.8755173 -6.71617547 487.85147359 -8 484 C-8.1506462 482.44246851 -8.25270943 480.88000328 -8.32543945 479.31689453 C-8.37266144 478.34700089 -8.41988342 477.37710724 -8.46853638 476.37782288 C-8.51630219 475.30696945 -8.56406799 474.23611603 -8.61328125 473.1328125 C-8.69483963 471.42036598 -8.69483963 471.42036598 -8.77804565 469.67332458 C-8.92860186 466.49424199 -9.07532196 463.31500926 -9.2203331 460.13566971 C-9.37562995 456.74778668 -9.53530762 453.36011016 -9.69458008 449.97241211 C-9.90190396 445.55589506 -10.10854325 441.13934842 -10.31309509 436.72270203 C-10.84353963 425.27608168 -11.39189699 413.83038874 -11.94624519 402.38490295 C-12.22471583 396.6261854 -12.50089679 390.86735766 -12.77696133 385.10852432 C-13.00364642 380.38162089 -13.23137152 375.65477288 -13.46157837 370.92803955 C-13.68074968 366.42497105 -13.89632792 361.92174327 -14.10940933 357.41838264 C-14.18852574 355.75874929 -14.26885469 354.09917317 -14.35055161 352.43966484 C-14.84977887 342.28195089 -15.1037306 332.17103997 -15 322 C-15.78124741 322.15417389 -16.56249481 322.30834778 -17.36741638 322.4671936 C-21.95259094 323.13972054 -26.49430802 323.33615145 -31.12133789 323.52490234 C-32.12948044 323.56899734 -33.13762299 323.61309235 -34.17631531 323.65852356 C-36.3695949 323.7539816 -38.56294879 323.84774417 -40.75636482 323.94001389 C-44.28747768 324.08866635 -47.81836315 324.24196575 -51.34922791 324.39639282 C-58.92014466 324.72668346 -66.4913018 325.05123365 -74.0625 325.375 C-83.88690884 325.79517088 -93.71116505 326.21860445 -103.53515625 326.6484375 C-104.74999317 326.70139732 -105.96483009 326.75435715 -107.21648026 326.80892181 C-127.88393149 327.71509697 -148.53659158 328.82085374 -169.18629456 330.06674194 C-170.23847986 330.12916958 -171.29066517 330.19159721 -172.37473488 330.2559166 C-174.30919769 330.37093677 -176.24350785 330.48857402 -178.17760277 330.60962296 C-184.4578342 330.98173951 -190.70945004 331.06132655 -197 331 C-196.40194534 406.94667532 -196.40194534 406.94667532 -187.78515625 482.328125 C-187.49402954 484.05506592 -187.49402954 484.05506592 -187.19702148 485.81689453 C-186.82977691 487.94073743 -186.4465302 490.06191029 -186.04321289 492.17919922 C-185.03826887 497.81759216 -184.77317306 501.66532736 -187 507 C-189.82284196 510.40188646 -191.34627741 511.67992466 -195.6640625 512.515625 C-201.05678875 512.83540931 -201.05678875 512.83540931 -204 512 C-208.78720749 507.575143 -210.17462578 503.2598166 -211.5 497 C-211.70230225 496.08976074 -211.90460449 495.17952148 -212.11303711 494.24169922 C-216.36448825 474.51745809 -219.20601527 454.68200499 -221.25 434.625 C-221.33299347 433.81178284 -221.41598694 432.99856567 -221.50149536 432.16070557 C-223.11526542 416.1470944 -224.10188271 400.15412138 -224.5625 384.0625 C-224.58367889 383.35063538 -224.60485779 382.63877075 -224.62667847 381.90533447 C-225.10327511 365.60360908 -225.10393897 349.30722509 -225 333 C-225.90999756 333.10884521 -226.81999512 333.21769043 -227.75756836 333.32983398 C-243.24469746 335.13538817 -258.77792721 336.46999331 -274.30645752 337.8604126 C-280.27215739 338.3947965 -286.2376223 338.93178291 -292.20298576 339.46990776 C-294.26167457 339.65522935 -296.32047283 339.83929385 -298.37928772 340.02320862 C-304.92942273 340.61251518 -311.46558518 341.25755796 -318 342 C-320.12234114 342.14880783 -322.24810949 342.2594673 -324.375 342.3125 C-325.37273437 342.34988281 -326.37046875 342.38726562 -327.3984375 342.42578125 C-330 342 -330 342 -331.8203125 340.1640625 C-333.4606472 337.1549717 -333.55197249 335.38083153 -333 332 C-329.61100409 327.94422791 -326.95325634 326.27133479 -321.84765625 325.04296875 C-320.6160376 324.7392334 -319.38441895 324.43549805 -318.11547852 324.12255859 C-316.76468672 323.81000226 -315.41368694 323.49834367 -314.0625 323.1875 C-312.64164123 322.84802263 -311.22099128 322.50767024 -309.80053711 322.16650391 C-281.72788644 315.49139056 -253.41993386 309.9644803 -225 305 C-223.98827595 290.84662634 -223.47453334 276.68008543 -223 262.5 C-222.95675598 261.22460358 -222.91351196 259.94920715 -222.86895752 258.63516235 C-221.64303666 221.76891906 -221.34410658 184.88304014 -221 148 C-228.12718185 148.23971774 -235.25398154 148.48913954 -242.38061523 148.74462891 C-244.79395256 148.83008227 -247.2073634 148.9134894 -249.62084961 148.99462891 C-262.02079658 149.41286572 -274.39381324 149.91746768 -286.7578125 150.9765625 C-287.6814711 151.05494354 -288.6051297 151.13332458 -289.55677795 151.21408081 C-301.70707152 151.85144129 -301.70707152 151.85144129 -312 157 C-315.02574598 157.40888459 -316.84110187 157.06282019 -319.6875 155.9375 C-322.90497847 153.2417748 -323.4325606 151.11393562 -324 147 C-322.234239 141.702717 -317.71209448 139.45151107 -313 137 C-285.95976176 123.78122083 -251.59059882 122.55119263 -222 123 C-222.40375939 118.33644612 -222.81280991 113.67339844 -223.22680664 109.01074219 C-223.3669413 107.42395663 -223.50562015 105.83704181 -223.64282227 104.25 C-223.84009823 101.97099965 -224.042577 99.69251294 -224.24609375 97.4140625 C-224.3065538 96.70255035 -224.36701385 95.99103821 -224.42930603 95.25796509 C-224.73440153 91.50594067 -224.73440153 91.50594067 -226 88 C-226.40089844 88.54527344 -226.80179687 89.09054688 -227.21484375 89.65234375 C-236.22649095 101.60656963 -246.78798695 111.82636374 -262 115 C-275.42689687 115.85943411 -286.28938199 114.90088077 -296.99609375 105.91796875 C-305.26451409 98.00413954 -308.45162052 89.77387499 -309.0546875 78.43359375 C-308.88115295 67.53810335 -305.18075965 59.74351365 -299 51 C-298.13582225 49.61034241 -297.28064737 48.21501699 -296.4375 46.8125 C-288.99470938 34.95737097 -280.41669447 26.14950398 -266.375 22.6875 C-255.21749957 20.65531078 -245.89803697 23.13775346 -236.38671875 29.21484375 C-227.81175806 35.62852138 -222.48633047 44.25434632 -220.1875 54.6875 C-220.0946875 55.8321875 -220.0946875 55.8321875 -220 57 C-218.6696875 56.6596875 -218.6696875 56.6596875 -217.3125 56.3125 C-213.19786439 55.92432683 -212.17015404 56.38462292 -209 59 C-193.99834952 74.95920264 -192.79888455 101.2851087 -193 122 C-192.24958939 121.93533539 -191.49917877 121.87067078 -190.72602844 121.80404663 C-182.49332588 121.12884718 -174.26575343 120.7209163 -166.01198387 120.42996597 C-162.9138696 120.32050168 -159.81600578 120.20454401 -156.71810627 120.08918571 C-154.23795466 119.99694513 -151.75777188 119.90557426 -149.27758789 119.81420898 C-84.96077224 117.68109771 -84.96077224 117.68109771 -21 111 C-20.98018066 109.85265381 -20.96036133 108.70530762 -20.93994141 107.52319336 C-20.53731785 84.77570548 -19.97208907 62.04340163 -19 39.3125 C-18.95820618 38.31685028 -18.91641235 37.32120056 -18.87335205 36.29537964 C-17.60229631 6.2950456 -17.60229631 6.2950456 -14 2 C-9.52628951 -0.98247366 -5.240595 -0.71358028 0 0 Z M-277.82421875 61.1953125 C-280.4350959 64.5608597 -283.17826751 67.08913375 -287 69 C-288.73449338 74.08117612 -288.89802837 79.87309071 -286.8125 84.8125 C-283.19590142 89.17736036 -279.59179773 91.83943821 -274 93 C-265.66549344 93.26000194 -258.20390706 90.76181358 -251.95703125 85.171875 C-246.14378514 78.87522463 -242.37753163 72.25045076 -241.84375 63.58984375 C-242.1710866 58.16423966 -243.94661129 53.41734914 -247.4765625 49.26171875 C-251.43187106 45.93438572 -255.42229621 45.15672454 -260.5234375 45.47265625 C-268.82378757 47.24008095 -273.25886141 54.6352195 -277.82421875 61.1953125 Z M-29.76635742 138.42724609 C-30.69320343 138.5209549 -31.62004944 138.6146637 -32.57498169 138.71121216 C-34.07507278 138.8657637 -34.07507278 138.8657637 -35.60546875 139.0234375 C-37.78581277 139.24196956 -39.96623634 139.45970901 -42.14672852 139.67675781 C-43.86703781 139.84818298 -43.86703781 139.84818298 -45.62210083 140.02307129 C-81.68929392 143.58314414 -117.57266472 145.13331755 -153.80297852 145.65917969 C-166.88693032 145.85430286 -179.93375939 146.28679782 -193 147 C-193.31525096 150.97895349 -193.62665166 154.95820034 -193.9375 158.9375 C-194.02451172 160.03513672 -194.11152344 161.13277344 -194.20117188 162.26367188 C-195.40335591 177.71396304 -196.15728538 193.08435684 -196.31640625 208.578125 C-196.33709891 210.32281851 -196.35809725 212.06750841 -196.37937927 213.81219482 C-196.42292881 217.44931763 -196.46387533 221.0864564 -196.50268555 224.72363281 C-196.55148294 229.29163344 -196.60519691 233.85955851 -196.66065407 238.4274826 C-196.91281537 259.28585613 -197.07242853 280.1399479 -197 301 C-187.22644566 299.94019847 -177.46144817 298.82510042 -167.703125 297.6328125 C-126.63698791 292.631185 -85.68650283 288.97797344 -44.36254883 286.95043945 C-43.20647125 286.89327759 -42.05039368 286.83611572 -40.85928345 286.77722168 C-38.70079045 286.67151371 -36.54216557 286.56844926 -34.38339233 286.46862793 C-28.55171692 286.18566512 -22.79595846 285.70779189 -17 285 C-16.85598794 270.21369465 -17.262822 255.47408412 -17.7979126 240.69830322 C-18.68477292 216.01008187 -19.27716923 191.32658454 -19.625 166.625 C-19.63524578 165.89948063 -19.64549156 165.17396126 -19.65604782 164.42645645 C-19.77976452 155.61775046 -19.89472109 146.80894706 -20 138 C-23.29194725 137.96008157 -26.49221795 138.08998846 -29.76635742 138.42724609 Z " fill="#000000" transform="translate(342,0)"/>
<path d="M0 0 C3.85544798 1.99657127 5.59805092 3.39707638 8 7 C8.71617265 11.83832919 8.57181718 15.85636564 6.375 20.25 C3.68000676 23.37051849 1.07851594 26.24898576 -2 29 C-2.99 29 -3.98 29 -5 29 C-5.32677734 30.00546875 -5.32677734 30.00546875 -5.66015625 31.03125 C-7.42282733 34.93687687 -9.85488108 38.09915892 -12.4375 41.5 C-15.50167535 45.56677674 -18.48186672 49.5612566 -21 54 C-20.09378906 54.61746094 -19.18757813 55.23492187 -18.25390625 55.87109375 C2.6315663 70.29912503 2.6315663 70.29912503 6 82 C6.74556571 86.22487235 6.22475976 87.59543244 4.125 91.375 C1.7440499 93.89600598 -0.12200716 94.51730966 -3.5625 94.75 C-14.29142442 94.01775887 -22.19072116 87.4753002 -29.52734375 80.171875 C-31.97687159 78.020315 -33.92132399 76.99134469 -37 76 C-47.70589704 92.52712763 -56.88248473 109.60345412 -65.60302734 127.24243164 C-67.80491785 131.58887576 -67.80491785 131.58887576 -70 133 C-74.47113962 133.674889 -76.44822452 133.34355832 -80.3125 130.9375 C-83.32034133 127.64985947 -84.89320961 125.42417347 -85 121 C-83.87278759 111.75225735 -80.94022131 103.38781359 -77 95 C-76.51917969 93.94683594 -76.03835938 92.89367187 -75.54296875 91.80859375 C-71.62876141 83.5897107 -66.98715148 76.00282394 -61.99975586 68.39624023 C-61.49710205 67.62352783 -60.99444824 66.85081543 -60.4765625 66.0546875 C-60.02361816 65.36874512 -59.57067383 64.68280273 -59.10400391 63.97607422 C-57.98878404 61.97992438 -57.44153673 60.23391355 -57 58 C-65.83674804 50.91392845 -75.01878526 44.48998423 -84.48291016 38.26733398 C-93.37499602 32.33274804 -93.37499602 32.33274804 -96 28 C-96.48560502 24.11515987 -96.34148084 21.76833188 -94.75 18.1875 C-92.86186126 15.82732658 -91.89773058 14.82792302 -89 14 C-84.02968858 14.45712353 -80.01057051 16.18304181 -75.625 18.4375 C-74.93672119 18.78659424 -74.24844238 19.13568848 -73.53930664 19.49536133 C-64.38628824 24.23225857 -55.54702848 29.66020281 -47.22265625 35.73828125 C-44.19110844 38.09526314 -44.19110844 38.09526314 -41 39 C-40.7321167 38.2687793 -40.4642334 37.53755859 -40.18823242 36.78417969 C-39.02166732 34.05076929 -37.69629536 31.87753673 -35.98828125 29.453125 C-35.39466797 28.6075 -34.80105469 27.761875 -34.18945312 26.890625 C-33.57005859 26.01921875 -32.95066406 25.1478125 -32.3125 24.25 C-31.71244141 23.3940625 -31.11238281 22.538125 -30.49414062 21.65625 C-14.07726757 -1.62008989 -14.07726757 -1.62008989 0 0 Z " fill="#000000" transform="translate(476,348)"/>
<path d="M0 0 C9.97893285 7.1428151 16.6099256 17.45574319 19.58203125 29.32421875 C21.61700631 42.35186282 20.12417264 55.14094437 12.8125 66.3125 C4.55366442 77.10847787 -6.44409533 84.64073515 -20 87 C-34.76772089 88.39637921 -47.70002771 86.99403907 -59.81640625 77.84375 C-68.52662223 70.48914903 -73.97742759 60.3807445 -75.22070312 48.9753418 C-76.03349736 34.73938847 -73.35820727 21.33791542 -64.359375 9.91796875 C-59.66258433 4.75741933 -54.31558032 1.73823418 -48.12890625 -1.39453125 C-44.82684579 -3.08884692 -41.75952051 -4.98580135 -38.68359375 -7.0546875 C-26.52136889 -13.88359334 -10.48014289 -6.67204292 0 0 Z M-46.4296875 21.9296875 C-47.99577666 24.24375954 -49.04897842 26.37802462 -50 29 C-50.45375 30.03125 -50.9075 31.0625 -51.375 32.125 C-53.16939177 40.37920216 -51.14630503 47.07744252 -47.1875 54.3125 C-43.51686596 58.82213611 -39.2749901 61.6510665 -33.43359375 62.2734375 C-24.96316839 62.56057056 -18.5038835 61.10208476 -12.1171875 55.28515625 C-7.20161633 49.85903059 -5.45035197 45.0157081 -5.625 37.69140625 C-6.62978549 30.47997707 -10.51528285 24.81386689 -15.86328125 20.05859375 C-23.55359885 16.24858265 -39.60231552 16.50730525 -46.4296875 21.9296875 Z " fill="#000000" transform="translate(283,371)"/>
<path d="M0 0 C13.15645437 7.31756684 20.49703041 18.06809113 25.03515625 32.23046875 C28.9623317 47.2267992 27.95259915 63.71085946 20.3125 77.4375 C13.24066509 87.96549482 4.54287526 94.65843732 -7.84301758 97.60083008 C-19.38721312 99.73719224 -31.3827748 98.74999827 -41.41796875 92.4921875 C-51.92174433 84.926654 -57.39400844 75.05879545 -60.61328125 62.6328125 C-62.8044313 47.71528587 -61.08944719 31.91346418 -52.62890625 19.1484375 C-48.1661171 13.26226477 -43.22517499 8.2373816 -36 6 C-34.783125 6.0825 -33.56625 6.165 -32.3125 6.25 C-31.219375 6.1675 -30.12625 6.085 -29 6 C-27.41408513 4.08809152 -26.33528239 2.17122753 -25.23828125 -0.0546875 C-19.9266794 -8.39909671 -6.98105357 -3.04857378 0 0 Z M-27 16 C-35.74250751 29.13831887 -40.14681633 39.07199544 -39 55 C-37.50553284 61.69261379 -35.04238551 67.30940883 -30 72 C-24.45674321 75.30463386 -20.0975856 75.5243964 -14 74 C-7.07822223 71.66326845 -2.47686417 67.49574214 1.03515625 61.12109375 C4.4053741 53.36175498 3.6738548 45.27156439 1.046875 37.390625 C-2.4136692 29.48818824 -7.97957683 24.11353212 -15.9375 20.9375 C-16.79988281 20.61136719 -17.66226563 20.28523438 -18.55078125 19.94921875 C-21.48441641 18.81225967 -24.21819208 17.46410943 -27 16 Z " fill="#000000" transform="translate(67,387)"/>
<path d="M0 0 C3.10352458 1.60923497 5.21701424 3.00347267 7.375 5.75 C8.78939641 10.84182707 8.83687962 15.13400663 6.25 19.75 C2.80108583 24.75585257 -1.70681633 28.86881055 -6.046875 33.08984375 C-10.45511459 37.3899832 -14.58057738 41.87086607 -18 47 C-13.11192108 52.22910768 -8.04282736 56.85860694 -2.3125 61.125 C9.87076473 70.3180979 9.87076473 70.3180979 11.0625 77.625 C11.25074706 81.57146509 10.67668368 83.95411857 8 87 C3.13537653 89.90440599 -1.7420867 89.770373 -7.1640625 88.48828125 C-18.02205813 84.44121015 -26.74687193 73.6397555 -34 65 C-38.48702623 69.34706394 -42.46955123 74.01935478 -46.45117188 78.828125 C-54.42323903 88.2917402 -54.42323903 88.2917402 -59.16015625 89.59375 C-63.56745281 89.37655263 -66.57057588 88.82423163 -70 86 C-72.35343468 82.75001878 -72.27134035 79.92975679 -72 76 C-68.40011234 66.33470676 -62.74824231 58.71601349 -56 51 C-54.98641826 49.67696189 -53.98102439 48.34735628 -53 47 C-54.66567595 42.66713408 -57.87459662 39.86506136 -61.125 36.6875 C-61.70886475 36.10935547 -62.29272949 35.53121094 -62.89428711 34.93554688 C-66.03178744 31.85053341 -69.21903579 28.86311774 -72.5625 26 C-78.302319 21.0263009 -78.302319 21.0263009 -80 18 C-80.20839198 14.4781755 -79.92948908 11.19386472 -77.6953125 8.32421875 C-74.45203695 5.79087679 -71.01125278 5.60260034 -67 6 C-56.00586948 10.46745621 -46.66167993 20.13335349 -38 28 C-34.69054662 24.79925129 -31.68145463 21.48460797 -28.75 17.93652344 C-12.29284803 -1.93848757 -12.29284803 -1.93848757 0 0 Z " fill="#000000" transform="translate(283,173)"/>
</svg>
