<?xml version="1.0" encoding="UTF-8"?>
<svg version="1.1" xmlns="http://www.w3.org/2000/svg" width="512" height="512">
<path d="M0 0 C0.832966 -0.00817749 1.66593201 -0.01635498 2.5241394 -0.02478027 C5.27520028 -0.04955548 8.02621003 -0.06612545 10.77734375 -0.08056641 C11.71748322 -0.08589008 12.65762268 -0.09121376 13.62625122 -0.09669876 C18.59750553 -0.12338945 23.56873502 -0.14278186 28.54003906 -0.15722656 C32.65680011 -0.17059426 36.77306883 -0.19850444 40.88964844 -0.23925781 C45.86098274 -0.28847034 50.83186876 -0.31333262 55.80343628 -0.32045364 C57.69811907 -0.3271792 59.59279134 -0.34243501 61.48733521 -0.36634445 C64.13532119 -0.39787001 66.78156411 -0.39805285 69.4296875 -0.390625 C70.21318573 -0.40703033 70.99668396 -0.42343567 71.80392456 -0.44033813 C75.64425649 -0.39617365 77.36106824 -0.13118765 80.23657227 2.5027771 C82.25271976 6.1716744 81.81897491 8.21799893 80.71484375 12.19287109 C78.819505 14.77742394 77.82657858 15.15562615 74.71484375 16.19287109 C72.19719951 16.28703779 69.70678958 16.32617387 67.18920898 16.31884766 C66.42454819 16.32071579 65.65988739 16.32258392 64.87205505 16.32450867 C63.21058425 16.32851239 61.54910795 16.33058748 59.88763237 16.33097076 C56.3454598 16.33439253 52.80346973 16.35576896 49.26136112 16.37620163 C42.6689274 16.41415977 36.07668638 16.44549404 29.48413086 16.44335938 C24.89626094 16.44256875 20.30905696 16.46608843 15.72136116 16.50524139 C13.97964541 16.51565346 12.23785234 16.517261 10.49612236 16.50959015 C0.08497639 16.46833515 -8.93263118 16.65004456 -17.17088318 23.83824158 C-24.85120917 31.47083788 -24.77475501 42.67401915 -24.97265625 52.81787109 C-25.00681641 54.01283203 -25.04097656 55.20779297 -25.07617188 56.43896484 C-25.15786626 59.3566215 -25.22320447 62.27472848 -25.28515625 65.19287109 C-21.32515625 65.19287109 -17.36515625 65.19287109 -13.28515625 65.19287109 C-13.31657715 63.9222583 -13.31657715 63.9222583 -13.34863281 62.62597656 C-13.4170968 59.46146716 -13.46709612 56.29733719 -13.50488281 53.13232422 C-13.52490944 51.76663742 -13.55213957 50.40103541 -13.58691406 49.03564453 C-13.63582057 47.06500008 -13.65606972 45.09371127 -13.67578125 43.12255859 C-13.70720215 41.34727783 -13.70720215 41.34727783 -13.73925781 39.53613281 C-13.17631309 35.39152796 -11.99268561 33.36552857 -9.28515625 30.19287109 C-5.14664829 27.73271763 -2.08318462 26.8166221 2.7109375 26.80519104 C3.88849609 26.79528641 5.06605469 26.78538177 6.27929688 26.775177 C7.55740234 26.77967865 8.83550781 26.7841803 10.15234375 26.78881836 C11.52279211 26.78311117 12.89323572 26.77614555 14.26367188 26.76802063 C17.97441376 26.75011406 21.68491885 26.75125262 25.39569092 26.75696301 C28.49713333 26.76005801 31.59853047 26.75395909 34.69996643 26.74792427 C42.01746402 26.73388936 49.33484483 26.73543215 56.65234375 26.74682617 C64.194882 26.75831125 71.73706484 26.74422305 79.27955627 26.7174297 C85.76296997 26.6952631 92.24627218 26.68863732 98.72972107 26.69450611 C102.59870926 26.69787404 106.46746955 26.69547152 110.33642578 26.67825508 C113.97438478 26.66277211 117.61181755 26.66675582 121.24975586 26.68556023 C123.21664247 26.6909944 125.18355278 26.67674298 127.15039062 26.66186523 C135.5326557 26.73186799 139.1292538 27.61915396 145.07421875 33.54443359 C148.2435893 38.75781848 147.11730212 45.72167907 146.96484375 51.56787109 C146.94679688 52.87626953 146.92875 54.18466797 146.91015625 55.53271484 C146.86313723 58.75351798 146.79742556 61.97281584 146.71484375 65.19287109 C150.34484375 65.19287109 153.97484375 65.19287109 157.71484375 65.19287109 C157.69522009 61.10268489 157.6428996 57.01425369 157.56225586 52.92480469 C157.53927971 51.53820232 157.5247287 50.15143048 157.51928711 48.76464844 C157.47855006 40.08452336 157.02859162 32.41985336 151.71484375 25.19287109 C145.2669689 19.11171096 139.41971501 16.9097945 130.5625 16.88427734 C128.96549108 16.85912133 127.36848596 16.83372325 125.77148438 16.80810547 C123.2722265 16.77937837 120.77303438 16.75533874 118.27368164 16.73657227 C115.84878324 16.71483822 113.42463598 16.6754021 111 16.63427734 C110.25919693 16.63416153 109.51839386 16.63404572 108.75514221 16.63392639 C104.02460164 16.54431603 100.72877289 15.71260038 96.71484375 13.19287109 C95.16897499 10.10113358 95.42124854 7.59857557 95.71484375 4.19287109 C97.16210938 2.00170898 97.16210938 2.00170898 99.71484375 0.19287109 C102.76503655 -0.41213269 105.76914738 -0.39141648 108.87109375 -0.37353516 C110.21826477 -0.38283302 110.21826477 -0.38283302 111.59265137 -0.39231873 C113.49567585 -0.39941972 115.39876241 -0.39623798 117.30175781 -0.38354492 C120.17763906 -0.36980664 123.05018129 -0.40358944 125.92578125 -0.44189453 C141.02714499 -0.50528423 152.07091441 2.09871445 163.359375 12.74365234 C170.31124705 20.11791662 173.88549797 29.71440789 173.8125 39.70458984 C173.81037758 40.7969268 173.81037758 40.7969268 173.80821228 41.91133118 C173.80262034 44.23438648 173.79006937 46.55734498 173.77734375 48.88037109 C173.77232771 50.45654158 173.76776498 52.03271357 173.76367188 53.60888672 C173.75265355 57.47025208 173.73539449 61.33154518 173.71484375 65.19287109 C174.63446396 65.18398865 175.55408417 65.1751062 176.50157166 65.16595459 C185.19595786 65.08558798 193.89021812 65.02479483 202.58489132 64.98562241 C207.05423349 64.96480592 211.52326704 64.93659783 215.99243164 64.89111328 C220.31075102 64.84744227 224.62877477 64.82368939 228.94729805 64.81336212 C230.589439 64.80600869 232.23156497 64.79164955 233.87357903 64.76995087 C243.62943192 64.64623454 252.13073335 64.60254306 260.01953125 71.08740234 C260.53773438 71.72033203 261.0559375 72.35326172 261.58984375 73.00537109 C262.12351562 73.63056641 262.6571875 74.25576172 263.20703125 74.89990234 C266.89967316 80.51539664 268.15992649 85.30818185 268.0756073 91.98204041 C268.07817057 92.73531146 268.08073385 93.48858252 268.0833748 94.26467997 C268.08829029 96.77213466 268.07185727 99.27897835 268.05541992 101.78637695 C268.05457316 103.59034206 268.05504974 105.3943082 268.05674744 107.19827271 C268.05760691 112.08415704 268.03998879 116.96981968 268.01902556 121.85565257 C268.00025089 126.96589577 267.9985077 132.07614426 267.99494934 137.18641663 C267.98563121 146.8583331 267.96102053 156.53014765 267.93090087 166.20201927 C267.89734968 177.21525879 267.88086903 188.22850321 267.86581457 199.24178112 C267.8344708 221.89220091 267.78171477 244.54253029 267.71484375 267.19287109 C268.60428366 267.48226437 268.60428366 267.48226437 269.51169205 267.77750397 C273.61130569 269.12500173 277.65321722 270.48523896 281.60449219 272.22998047 C282.44856628 272.60046509 283.29264038 272.97094971 284.16229248 273.35266113 C285.04072815 273.74336792 285.91916382 274.13407471 286.82421875 274.53662109 C287.75405579 274.94698608 288.68389282 275.35735107 289.64190674 275.78015137 C291.59238927 276.64214211 293.54198419 277.5061439 295.49072266 278.37207031 C298.46793255 279.69424282 301.44857162 281.00843917 304.4296875 282.32177734 C306.33224005 283.16375362 308.23459093 284.00618575 310.13671875 284.84912109 C311.02325134 285.23982788 311.90978394 285.63053467 312.82318115 286.03308105 C323.16168909 290.63971643 323.16168909 290.63971643 326.71484375 294.19287109 C327.05439724 297.20034487 327.27097911 299.29179387 326.71484375 302.19287109 C324.29524702 305.03945548 322.8088082 306.05595975 319.09692383 306.52050781 C314.492549 306.07446212 310.89766984 304.37782157 306.7265625 302.45068359 C305.84661118 302.05520828 304.96665985 301.65973297 304.06004333 301.25227356 C301.1695167 299.95079434 298.28611909 298.63423272 295.40234375 297.31787109 C293.39689995 296.41237365 291.39087008 295.50817314 289.38427734 294.60522461 C286.28412091 293.21002465 283.18434555 291.81404194 280.08636475 290.41401672 C270.25928399 285.97416436 260.39309646 281.62593636 250.51480103 277.30145264 C247.88517622 276.1502174 245.25633069 274.99722012 242.62768555 273.84375 C241.01354497 273.13582319 239.39937041 272.42797386 237.78515625 271.72021484 C237.06726425 271.40542679 236.34937225 271.09063873 235.60972595 270.76631165 C234.27497881 270.18187373 232.93837395 269.60165435 231.59967041 269.02633667 C230.34339478 268.47081477 229.09968435 267.88596321 227.87054443 267.2727356 C223.66095295 265.23803494 221.19392401 264.88071998 216.71484375 266.19287109 C213.98166086 267.20630417 211.32955191 268.36394708 208.671875 269.56005859 C207.88789841 269.90622223 207.10392181 270.25238586 206.29618835 270.60903931 C203.70367882 271.75557129 201.11558489 272.91173965 198.52734375 274.06787109 C196.69170047 274.88168609 194.85575724 275.69482485 193.01953125 276.50732422 C189.17760552 278.20851195 185.33739515 279.91348769 181.49853516 281.62158203 C175.96376491 284.08366968 170.42424761 286.53488889 164.8828125 288.98193359 C164.00046432 289.37157791 163.11811615 289.76122223 162.20903015 290.16267395 C160.43145227 290.94760499 158.65385933 291.73250193 156.87625122 292.5173645 C154.21198947 293.69413179 151.54818412 294.87192611 148.88452148 296.05004883 C134.23355569 302.52933313 119.56776897 308.9745869 104.89648438 315.40771484 C104.07713409 315.76704605 103.25778381 316.12637726 102.41360474 316.49659729 C100.90514007 317.15807147 99.39658408 317.81933744 97.88790894 318.48033142 C96.8632402 318.9295974 96.8632402 318.9295974 95.81787109 319.38793945 C95.15454773 319.67804901 94.49122437 319.96815857 93.80780029 320.26705933 C92.2899905 320.93845701 90.77693806 321.6206428 89.26690674 322.30935669 C88.45904724 322.67640717 87.65118774 323.04345764 86.81884766 323.42163086 C85.71351181 323.92896507 85.71351181 323.92896507 84.58584595 324.44654846 C82.71484375 325.19287109 82.71484375 325.19287109 80.71484375 325.19287109 C82.91513712 327.63280119 84.92231822 328.93229944 87.92333984 330.24584961 C89.19013077 330.80641808 89.19013077 330.80641808 90.48251343 331.37831116 C91.39191681 331.772155 92.30132019 332.16599884 93.23828125 332.57177734 C94.17660797 332.98451401 95.11493469 333.39725067 96.08169556 333.82249451 C99.08157288 335.14004168 102.0856481 336.44770481 105.08984375 337.75537109 C107.10574293 338.63951184 109.12137125 339.52427042 111.13671875 340.40966797 C117.87926377 343.37108586 117.87926377 343.37108586 124.63885498 346.29324341 C126.27823433 347.00366683 127.8998812 347.75500424 129.51416016 348.52075195 C134.87394848 350.15770528 139.98434723 346.86245842 144.76953125 344.62255859 C145.54813507 344.26324249 146.32673889 343.90392639 147.12893677 343.53372192 C149.61826433 342.38345606 152.10406254 341.22577773 154.58984375 340.06787109 C156.2224309 339.31217573 157.8552415 338.5569629 159.48828125 337.80224609 C168.83753778 333.47929056 168.83753778 333.47929056 178.14941406 329.07666016 C178.83891144 328.74876495 179.52840881 328.42086975 180.23880005 328.08303833 C182.09895139 327.19710073 183.95608198 326.3048285 185.81298828 325.41210938 C188.71484375 324.19287109 188.71484375 324.19287109 191.71484375 324.19287109 C191.48796875 323.55349609 191.26109375 322.91412109 191.02734375 322.25537109 C190.56312455 317.70602297 191.58279792 314.22236871 193.71484375 310.19287109 C199.11635882 303.88098832 205.56610857 300.53142414 213.71484375 299.19287109 C225.14222625 298.467323 234.93911898 299.14033219 244.0234375 306.59130859 C247.50091576 309.88407092 249.35231964 312.91195256 250.65234375 317.50537109 C250.74844979 323.17562755 249.73951602 327.72742089 246.08203125 332.18115234 C238.49533054 339.35319532 230.80513742 341.52298436 220.58984375 341.63037109 C219.83783691 341.64060303 219.08583008 341.65083496 218.31103516 341.66137695 C213.59279957 341.58747688 209.99791489 340.79156444 205.73876953 338.73608398 C199.62636243 337.09554046 193.60954584 340.86280799 188.23046875 343.41162109 C186.88526154 344.03852844 186.88526154 344.03852844 185.51287842 344.67810059 C182.66026295 346.00949099 179.81256165 347.3510422 176.96484375 348.69287109 C175.03416645 349.59588283 173.10318002 350.49823393 171.171875 351.39990234 C162.90864445 355.22413698 162.90864445 355.22413698 154.71484375 359.19287109 C156.57667682 360.03824501 158.43869938 360.8832016 160.30078125 361.72802734 C160.89689209 361.99852905 161.49300293 362.26903076 162.10717773 362.54772949 C165.48717167 364.08013484 168.86966954 365.60668722 172.25634766 367.12426758 C173.70090317 367.77200871 175.14540076 368.41987907 176.58984375 369.06787109 C177.32850677 369.39920547 178.0671698 369.73053986 178.82821655 370.07191467 C183.47496197 372.16355206 188.09707528 374.30172021 192.70565796 376.47608948 C195.75278913 377.90901456 198.81041449 379.31857723 201.86993408 380.724823 C203.34191245 381.40815914 204.80912256 382.1018683 206.2711792 382.80618286 C208.33195746 383.79723313 210.4068175 384.75011358 212.48828125 385.69677734 C213.66825684 386.25179932 214.84823242 386.80682129 216.06396484 387.37866211 C221.07263441 388.49568184 224.10944325 387.18884732 228.71484375 385.19287109 C229.41089722 384.90230331 230.10695068 384.61173553 230.82409668 384.31236267 C232.97146237 383.39175427 235.09555297 382.42957769 237.21875 381.45458984 C238.39996429 380.91915054 238.39996429 380.91915054 239.6050415 380.37289429 C241.28909763 379.60917716 242.9722958 378.84356575 244.6546936 378.07620239 C249.15460957 376.02440743 253.66154717 373.98814047 258.16796875 371.95068359 C259.07307693 371.54110916 259.97818512 371.13153473 260.91072083 370.70954895 C268.7565173 367.16348921 276.63259821 363.69082006 284.52734375 360.25537109 C287.08610144 359.14116379 289.64470371 358.02660063 292.203125 356.91162109 C292.85958511 356.62556 293.51604523 356.3394989 294.19239807 356.04476929 C305.69725449 351.02533287 317.16921651 345.93066863 328.64770508 340.85131836 C329.95352287 340.27377052 329.95352287 340.27377052 331.28572083 339.68455505 C332.99132166 338.92982656 334.69656068 338.17427981 336.40141296 337.41786194 C340.42888493 335.63329815 344.46249352 333.86718291 348.515625 332.14160156 C349.26307983 331.82146591 350.01053467 331.50133026 350.78063965 331.17149353 C352.17872332 330.57404601 353.57908921 329.98190096 354.98205566 329.39601135 C358.50546195 328.05823152 358.50546195 328.05823152 360.71484375 325.19287109 C359.91433594 324.95503906 359.91433594 324.95503906 359.09765625 324.71240234 C342.99390593 319.66953243 342.99390593 319.66953243 338.71484375 314.19287109 C338.32167497 311.09666695 338.09716098 309.15062127 338.71484375 306.19287109 C340.71484375 303.63037109 340.71484375 303.63037109 343.71484375 302.19287109 C350.03339486 302.51357509 355.09848396 304.25217068 360.83984375 306.81787109 C361.61199219 307.13626953 362.38414062 307.45466797 363.1796875 307.78271484 C369.74551793 310.67973372 373.93486976 314.63292311 377.15234375 321.06787109 C378.20672033 326.92551874 377.53929612 331.42182527 375.02734375 336.81787109 C369.12122979 344.14145241 357.6999473 347.2218127 349.234375 350.91162109 C348.50593384 351.22969727 347.77749268 351.54777344 347.02697754 351.87548828 C345.25649935 352.64848327 343.48570524 353.4207546 341.71484375 354.19287109 C341.71119812 355.17735229 341.70755249 356.1618335 341.70379639 357.17614746 C341.66678264 366.47445434 341.60894042 375.77243199 341.53094101 385.07048798 C341.49150782 389.85022818 341.45929898 394.6297853 341.44384766 399.40966797 C341.42865363 404.02645223 341.39415953 408.64273301 341.34653473 413.2592926 C341.33174919 415.01660271 341.32380436 416.77398471 341.3229599 418.53135681 C341.32057989 421.00175033 341.2934193 423.47076403 341.26074219 425.94091797 C341.26577255 426.66021484 341.27080292 427.37951172 341.27598572 428.12060547 C341.13381634 435.11144864 338.28040855 441.16902505 333.40234375 446.19287109 C301.50468812 476.15199517 241.28665749 473.44114544 200.71484375 472.19287109 C181.19720623 471.4138443 161.48440922 468.64187923 142.71484375 463.19287109 C143.33034683 466.48797468 144.48121565 468.54464339 146.48828125 471.21240234 C147.0611084 471.98036133 147.63393555 472.74832031 148.22412109 473.53955078 C148.83980957 474.35327148 149.45549805 475.16699219 150.08984375 476.00537109 C150.71455566 476.84616211 151.33926758 477.68695313 151.98291016 478.55322266 C154.97715786 482.57957559 158.00362892 486.5764305 161.08984375 490.53271484 C161.59854004 491.1961792 162.10723633 491.85964355 162.63134766 492.54321289 C163.57769749 493.77581216 164.53764741 494.99813227 165.51318359 496.20776367 C168.62655179 500.28985337 169.31717007 503.1099745 168.71484375 508.19287109 C167.21484375 510.63037109 167.21484375 510.63037109 164.71484375 512.19287109 C159.89085708 513.23806821 159.89085708 513.23806821 156.71484375 512.19287109 C153.55697843 509.56131666 151.17117589 506.47303479 148.71484375 503.19287109 C148.10898437 502.40783203 147.503125 501.62279297 146.87890625 500.81396484 C145.46435669 498.95778362 144.07756471 497.0872597 142.71484375 495.19287109 C142.6890625 496.08490234 142.66328125 496.97693359 142.63671875 497.89599609 C142.58 499.06646484 142.52328125 500.23693359 142.46484375 501.44287109 C142.4184375 502.60302734 142.37203125 503.76318359 142.32421875 504.95849609 C141.61537675 508.7208113 140.77575241 509.95146103 137.71484375 512.19287109 C134.9437983 512.97763983 132.51590657 512.81980302 129.71484375 512.19287109 C127.27734375 510.44287109 127.27734375 510.44287109 125.71484375 507.19287109 C125.10680407 503.19643938 124.84365502 499.2311045 124.71484375 495.19287109 C124.18528076 495.91204712 124.18528076 495.91204712 123.64501953 496.64575195 C122.04746647 498.81040746 120.44375007 500.97041945 118.83984375 503.13037109 C118.28425781 503.88511719 117.72867188 504.63986328 117.15625 505.41748047 C116.62128906 506.13613281 116.08632812 506.85478516 115.53515625 507.59521484 C115.04289551 508.26029053 114.55063477 508.92536621 114.04345703 509.6105957 C111.77277682 512.31479975 110.47031135 512.21653552 106.83984375 512.56787109 C103.51067787 512.5132946 102.88207958 512.32747554 100.15234375 510.13037109 C98.35691387 506.46144917 98.46179645 503.97770711 99.71484375 500.19287109 C101.57775723 496.98639957 103.81051415 494.11278685 106.08984375 491.19287109 C106.71528076 490.36343994 107.34071777 489.53400879 107.98510742 488.67944336 C110.96038407 484.73774059 113.98857348 480.84149615 117.0546875 476.97021484 C124.37787671 467.69759029 124.37787671 467.69759029 125.71484375 456.19287109 C124.50828125 455.88349609 124.50828125 455.88349609 123.27734375 455.56787109 C114.73845908 452.27216122 106.16793213 446.29210268 102.13891602 437.91699219 C99.96117393 431.92512793 100.34384241 425.80116722 100.421875 419.50537109 C100.42611984 418.20712402 100.43036469 416.90887695 100.43473816 415.57128906 C100.44610953 412.14514352 100.47550832 408.71938875 100.5088501 405.293396 C100.53971895 401.78728519 100.55327915 398.28111031 100.56835938 394.77490234 C100.60038702 387.91406628 100.65148802 381.05348753 100.71484375 374.19287109 C99.79161316 374.19655827 98.86838257 374.20024544 97.91717529 374.20404434 C75.39624843 374.29305821 52.87534452 374.3586761 30.35427856 374.40011978 C19.46300991 374.42069715 8.57185785 374.44872498 -2.31933594 374.49462891 C-11.81813897 374.53464495 -21.31685751 374.56033893 -30.81574249 374.56922507 C-35.83987394 374.57441492 -40.86376379 374.58651113 -45.88781738 374.61579132 C-50.62875732 374.64319439 -55.36935901 374.65126646 -60.11037064 374.64530182 C-61.83878043 374.64639104 -63.56720302 374.65419528 -65.29554367 374.66969299 C-85.03865798 374.83785481 -103.15976605 370.96156661 -117.93359375 356.83740234 C-125.10487315 348.77269112 -130.32446661 339.59053113 -133.28515625 329.19287109 C-133.45805176 328.60779785 -133.63094727 328.02272461 -133.80908203 327.41992188 C-134.87190925 322.44807065 -134.59974351 317.25655745 -134.66015625 312.19287109 C-134.69753906 311.00435547 -134.73492187 309.81583984 -134.7734375 308.59130859 C-134.78503906 307.44919922 -134.79664063 306.30708984 -134.80859375 305.13037109 C-134.83832275 303.56609375 -134.83832275 303.56609375 -134.86865234 301.97021484 C-134.28515625 299.19287109 -134.28515625 299.19287109 -131.97900391 296.81787109 C-129.28515625 295.19287109 -129.28515625 295.19287109 -125.66015625 295.25537109 C-121.14229911 296.51033141 -121.14229911 296.51033141 -119.28515625 299.19287109 C-118.37041837 301.93708474 -118.15155308 303.64121079 -118.109375 306.47412109 C-117.79650175 318.97461088 -116.61013645 328.85699264 -109.43359375 339.43896484 C-108.28515625 341.19287109 -108.28515625 341.19287109 -107.38671875 343.29052734 C-106.00065579 345.68418926 -104.79011008 346.09838487 -102.28515625 347.19287109 C-100.87943684 348.1577913 -99.4840695 349.13791134 -98.09765625 350.13037109 C-90.04570686 355.56908485 -81.46510462 357.33737683 -71.85038757 357.35108948 C-70.74142025 357.35849644 -70.74142025 357.35849644 -69.61004955 357.36605304 C-67.13806583 357.38138491 -64.666108 357.38977695 -62.1940918 357.39819336 C-60.41997552 357.40777527 -58.64586151 357.41778554 -56.87174988 357.42819214 C-52.05816441 357.4552133 -47.24456917 357.47623797 -42.43094993 357.49619412 C-37.39940852 357.51807087 -32.36789716 357.5454513 -27.33638 357.57225037 C-17.80966776 357.6221544 -8.28293881 357.66710174 1.24380606 357.71027273 C12.09016838 357.75966466 22.93650054 357.81457554 33.7828337 357.86995232 C56.09347558 357.98373724 78.40414639 358.09058389 100.71484375 358.19287109 C100.40385482 356.23431793 100.40385482 356.23431793 99.71484375 354.19287109 C97.1369004 352.58246976 97.1369004 352.58246976 93.88671875 351.31787109 C92.69433594 350.80740234 91.50195312 350.29693359 90.2734375 349.77099609 C89.00435456 349.24387378 87.73481837 348.71784147 86.46484375 348.19287109 C83.99686094 347.16109506 81.53504025 346.11683268 79.07421875 345.06787109 C77.97561523 344.61154297 76.87701172 344.15521484 75.74511719 343.68505859 C70.72475971 341.21290061 67.01084666 338.35887764 64.71484375 333.19287109 C63.16205822 326.95783999 63.43871217 321.77553317 66.71484375 316.19287109 C71.17259032 311.36588506 76.38888299 308.61043121 82.36328125 306.08349609 C83.61279823 305.53705948 83.61279823 305.53705948 84.88755798 304.97958374 C87.61680062 303.78913946 90.35314811 302.61606712 93.08984375 301.44287109 C95.01379303 300.60733467 96.93720638 299.77056319 98.86010742 298.93261719 C102.83671068 297.20140195 106.81596596 295.47650778 110.79736328 293.75634766 C116.41363721 291.327298 122.01764837 288.87115602 127.6171875 286.40380859 C128.92445549 285.82788467 128.92445549 285.82788467 130.25813293 285.24032593 C131.9924503 284.47619795 133.72674921 283.71202809 135.46102905 282.94781494 C152.84829673 275.29223156 170.27195317 267.72074888 187.71484375 260.19287109 C187.02447021 260.17305176 186.33409668 260.15323242 185.62280273 260.1328125 C182.46562904 260.03698816 179.30906553 259.92754296 176.15234375 259.81787109 C175.06630859 259.78693359 173.98027344 259.75599609 172.86132812 259.72412109 C159.1293591 259.223259 159.1293591 259.223259 153.96484375 254.88037109 C144.75219684 243.87637617 148.71484375 241.29069797 148.71484375 222.19287109 C94.59484375 222.19287109 40.47484375 222.19287109 -15.28515625 222.19287109 C-15.28515625 229.78287109 -15.28515625 237.37287109 -15.28515625 245.19287109 C-18.06889934 251.68827163 -18.83906305 253.45535615 -24.28515625 257.19287109 C-28.41461534 258.83165306 -31.88221976 259.44863302 -36.3125 259.45849609 C-37.43462891 259.46107422 -38.55675781 259.46365234 -39.71289062 259.46630859 C-40.87111328 259.45857422 -42.02933594 259.45083984 -43.22265625 259.44287109 C-44.37701172 259.45060547 -45.53136719 259.45833984 -46.72070312 259.46630859 C-60.61953975 259.43441224 -60.61953975 259.43441224 -66.03515625 254.88037109 C-70.01651855 250.12485501 -71.66751949 247.08575244 -71.578125 240.79833984 C-71.56362305 238.99526367 -71.56362305 238.99526367 -71.54882812 237.15576172 C-71.52369141 235.90988281 -71.49855469 234.66400391 -71.47265625 233.38037109 C-71.45912109 232.11515625 -71.44558594 230.84994141 -71.43164062 229.54638672 C-71.39633943 226.42811466 -71.34702444 223.31071068 -71.28515625 220.19287109 C-72.22766235 220.04047974 -72.22766235 220.04047974 -73.18920898 219.88500977 C-79.08368303 218.83514159 -84.0537835 217.28115971 -89.34765625 214.50537109 C-90.03593506 214.1523291 -90.72421387 213.79928711 -91.43334961 213.43554688 C-96.87591599 210.56955213 -101.65455736 207.2494288 -106.28515625 203.19287109 C-106.9296875 202.66693359 -107.57421875 202.14099609 -108.23828125 201.59912109 C-111.73216034 198.72180891 -114.4681053 195.75609118 -117.28515625 192.19287109 C-117.29102249 193.20684967 -117.29688873 194.22082825 -117.30293274 195.26553345 C-117.36018818 204.82931334 -117.43296464 214.39286647 -117.52087116 223.95641518 C-117.56556602 228.87294495 -117.60482416 233.78939203 -117.6315918 238.70605469 C-117.6576335 243.45243603 -117.69804221 248.198499 -117.74834251 252.94468307 C-117.76500533 254.75389007 -117.77652325 256.56315213 -117.78277016 258.37242508 C-117.79241763 260.91007986 -117.82048416 263.44692121 -117.8527832 265.984375 C-117.85134811 266.7295639 -117.84991302 267.47475281 -117.84843445 268.24252319 C-117.93276155 272.93842508 -118.78735133 276.20778405 -121.28515625 280.19287109 C-124.37689377 281.73873985 -126.87945177 281.48646631 -130.28515625 281.19287109 C-132.47997284 279.6603508 -132.47997284 279.6603508 -134.28515625 277.19287109 C-134.67813008 274.46074194 -134.82611709 272.13127557 -134.79309082 269.4006958 C-134.79933078 268.61071347 -134.80557075 267.82073114 -134.8119998 267.00680995 C-134.8279692 264.35661369 -134.81531028 261.70733218 -134.80273438 259.05712891 C-134.80815392 257.15820783 -134.81527564 255.25929096 -134.82397461 253.36038208 C-134.8422357 248.19898485 -134.83512759 243.03790687 -134.82245827 237.87650394 C-134.81233914 232.47501317 -134.82172147 227.07354994 -134.82800293 221.67205811 C-134.83528499 212.59626353 -134.82567955 203.52059905 -134.80664062 194.44482422 C-134.78489707 183.9588263 -134.79190276 173.47313978 -134.81394625 162.98714948 C-134.83211559 153.98316959 -134.83465025 144.97928332 -134.82419157 135.97529101 C-134.81796173 130.59829531 -134.81710655 125.22144579 -134.83033752 119.84445953 C-134.84191672 114.78497173 -134.8338323 109.7258838 -134.8107605 104.66643906 C-134.80548335 102.81213672 -134.80697012 100.95780058 -134.81581116 99.10351181 C-134.82679051 96.56621807 -134.81297486 94.03019443 -134.79309082 91.49298096 C-134.80201371 90.7641682 -134.81093659 90.03535544 -134.82012987 89.28445745 C-134.71835471 82.55953935 -132.27905337 77.50159408 -127.91015625 72.44287109 C-121.67568447 67.09903814 -117.17585209 65.03708854 -109.05981445 65.0793457 C-108.32785858 65.07919968 -107.59590271 65.07905365 -106.84176636 65.0789032 C-104.42312656 65.0795997 -102.00456384 65.08737981 -99.5859375 65.09521484 C-97.90870709 65.09707996 -96.23147614 65.09850342 -94.554245 65.09950256 C-90.14015193 65.10332039 -85.72609178 65.11314443 -81.31201172 65.12420654 C-76.80762172 65.13443643 -72.3032264 65.13900357 -67.79882812 65.14404297 C-58.96092304 65.15476734 -50.12304238 65.17183498 -41.28515625 65.19287109 C-41.31657715 63.97724487 -41.31657715 63.97724487 -41.34863281 62.73706055 C-41.41774132 59.66370031 -41.46740084 56.59074222 -41.50488281 53.5168457 C-41.53434952 51.55897333 -41.58523383 49.6014601 -41.63671875 47.64404297 C-41.76475824 35.06416285 -39.31748901 24.09228362 -31.28515625 14.19287109 C-30.78371094 13.56767578 -30.28226562 12.94248047 -29.765625 12.29833984 C-21.91722688 3.53334048 -11.4131916 0.06205453 0 0 Z M2.71484375 43.19287109 C2.71484375 50.45287109 2.71484375 57.71287109 2.71484375 65.19287109 C44.95484375 65.19287109 87.19484375 65.19287109 130.71484375 65.19287109 C130.71484375 57.93287109 130.71484375 50.67287109 130.71484375 43.19287109 C88.47484375 43.19287109 46.23484375 43.19287109 2.71484375 43.19287109 Z M-118.28515625 86.19287109 C-119.16990936 89.19579452 -119.16990936 89.19579452 -119.02978516 92.50512695 C-119.04224274 93.76091049 -119.05470032 95.01669403 -119.0675354 96.31053162 C-119.05014081 97.67627532 -119.03150281 99.04200366 -119.01171875 100.40771484 C-119.01067963 101.82434588 -119.01172244 103.24097983 -119.01473999 104.65760803 C-119.0145607 107.62951669 -118.99376315 110.60033865 -118.95751953 113.57202148 C-118.91251494 117.34090358 -118.9109892 121.10817398 -118.92455482 124.87724972 C-118.93131786 127.80745703 -118.9178144 130.73731201 -118.89829636 133.66745186 C-118.8907062 135.05419621 -118.88824748 136.44098024 -118.89146805 137.82774162 C-118.89881391 156.77096411 -113.23759862 173.06632155 -99.92578125 186.57568359 C-99.054375 187.43935547 -98.18296875 188.30302734 -97.28515625 189.19287109 C-96.723125 189.78841797 -96.16109375 190.38396484 -95.58203125 190.99755859 C-90.09652203 196.33871231 -78.95093129 203.19287109 -71.28515625 203.19287109 C-71.27581055 202.5630835 -71.26646484 201.9332959 -71.25683594 201.28442383 C-71.20276863 198.39897891 -71.119195 195.51509246 -71.03515625 192.63037109 C-71.02097656 191.63972656 -71.00679687 190.64908203 -70.9921875 189.62841797 C-70.7824734 183.31602342 -70.01921485 179.34019121 -66.28515625 174.19287109 C-59.63179441 169.07490045 -51.46960096 169.97835393 -43.47265625 169.94287109 C-42.32216797 169.92224609 -41.17167969 169.90162109 -39.98632812 169.88037109 C-26.07251758 169.81658285 -26.07251758 169.81658285 -20.73535156 174.57446289 C-12.94526848 183.30884 -15.78565663 194.68136225 -15.28515625 206.19287109 C38.83484375 206.19287109 92.95484375 206.19287109 148.71484375 206.19287109 C149.04484375 197.94287109 149.37484375 189.69287109 149.71484375 181.19287109 C154.32879724 173.11845249 154.32879724 173.11845249 158.71484375 171.19287109 C164.59849316 169.76128962 170.50571442 169.96958936 176.52734375 169.94287109 C178.25307617 169.91193359 178.25307617 169.91193359 180.01367188 169.88037109 C193.92748242 169.81658285 193.92748242 169.81658285 199.26464844 174.57446289 C203.07825681 178.85034716 203.78299631 182.42598525 204.03125 187.95849609 C204.07314453 188.84794922 204.11503906 189.73740234 204.15820312 190.65380859 C204.19751953 191.57419922 204.23683594 192.49458984 204.27734375 193.44287109 C204.32052734 194.37873047 204.36371094 195.31458984 204.40820312 196.27880859 C204.51402425 198.5833575 204.61610932 200.88800948 204.71484375 203.19287109 C219.10572642 200.98716571 231.01233064 190.71949612 239.49462891 179.44458008 C249.44793553 165.45915578 252.02130966 150.8257416 252.05078125 134.04833984 C252.05722408 132.70697392 252.06395349 131.36560935 252.07095337 130.02424622 C252.08283992 127.23317196 252.08664242 124.44222078 252.08544922 121.65112305 C252.08524476 118.0823059 252.11271402 114.51427373 252.14699364 110.94564342 C252.16924912 108.18405034 252.17328745 105.42264808 252.17222977 102.6609745 C252.1757187 100.70834581 252.19735893 98.75577663 252.21932983 96.80326843 C252.21317657 95.61465714 252.20702332 94.42604584 252.20068359 93.20141602 C252.20353363 92.15902267 252.20638367 91.11662933 252.20932007 90.04264832 C251.58823795 86.46321363 250.20247494 84.79015638 247.71484375 82.19287109 C245.01467133 80.84278488 242.91944561 81.06236344 239.89448929 81.0558567 C238.64715177 81.05078216 237.39981425 81.04570762 236.11467862 81.0404793 C234.71766746 81.03987757 233.32065625 81.03937851 231.92364502 81.03897095 C230.44951535 81.03495784 228.97538679 81.03051987 227.50125957 81.02569139 C223.43559931 81.0137032 219.36995094 81.00807225 215.30427647 81.00351024 C210.92514323 80.99756267 206.54602426 80.98595075 202.16690063 80.97521973 C191.58400814 80.9506768 181.00111091 80.93606605 170.4181987 80.92315966 C167.43052427 80.91944919 164.44285032 80.91547584 161.45517635 80.91140699 C142.91320317 80.8861726 124.37122928 80.86411341 105.82924271 80.85167885 C101.53264615 80.84874902 97.23604962 80.84578737 92.93945312 80.84277344 C91.33755029 80.84165436 91.33755029 80.84165436 89.70328578 80.84051268 C72.3965248 80.82785427 55.08986643 80.79462579 37.78315344 80.7529716 C20.02604559 80.71058274 2.26899033 80.68698736 -15.488168 80.68175828 C-25.46277072 80.67834076 -35.43721305 80.66654546 -45.41176605 80.63365555 C-53.90521418 80.60569577 -62.39846906 80.59463777 -70.89195964 80.60585101 C-75.2269417 80.61104809 -79.56151881 80.60808326 -83.89644241 80.58338547 C-87.86421195 80.5609678 -91.83128389 80.56157383 -95.79906502 80.58058934 C-97.235182 80.58339993 -98.67134554 80.57773208 -100.10738739 80.5627764 C-110.47371902 80.25752763 -110.47371902 80.25752763 -118.28515625 86.19287109 Z M-55.28515625 186.19287109 C-55.37185057 187.68158969 -55.39219119 189.17431609 -55.3828125 190.66552734 C-55.38031494 191.47513916 -55.37781738 192.28475098 -55.37524414 193.11889648 C-55.36614014 194.15393311 -55.35703613 195.18896973 -55.34765625 196.25537109 C-55.32703125 199.53474609 -55.30640625 202.81412109 -55.28515625 206.19287109 C-47.36515625 206.19287109 -39.44515625 206.19287109 -31.28515625 206.19287109 C-31.26453125 202.91349609 -31.24390625 199.63412109 -31.22265625 196.25537109 C-31.21355225 195.22033447 -31.20444824 194.18529785 -31.19506836 193.11889648 C-31.1925708 192.30928467 -31.19007324 191.49967285 -31.1875 190.66552734 C-31.18226318 189.83287354 -31.17702637 189.00021973 -31.17163086 188.14233398 C-31.06872333 186.18770311 -31.06872333 186.18770311 -32.28515625 185.19287109 C-33.90773169 185.09370539 -35.53455456 185.06207333 -37.16015625 185.06005859 C-38.145 185.05876953 -39.12984375 185.05748047 -40.14453125 185.05615234 C-41.69914062 185.06195313 -41.69914062 185.06195313 -43.28515625 185.06787109 C-44.3215625 185.06400391 -45.35796875 185.06013672 -46.42578125 185.05615234 C-47.410625 185.05744141 -48.39546875 185.05873047 -49.41015625 185.06005859 C-50.32023437 185.06118652 -51.2303125 185.06231445 -52.16796875 185.06347656 C-54.27044105 184.95727101 -54.27044105 184.95727101 -55.28515625 186.19287109 Z M164.71484375 186.19287109 C164.62814943 187.68158969 164.60780881 189.17431609 164.6171875 190.66552734 C164.61968506 191.47513916 164.62218262 192.28475098 164.62475586 193.11889648 C164.63385986 194.15393311 164.64296387 195.18896973 164.65234375 196.25537109 C164.67296875 199.53474609 164.69359375 202.81412109 164.71484375 206.19287109 C172.63484375 206.19287109 180.55484375 206.19287109 188.71484375 206.19287109 C188.73546875 202.91349609 188.75609375 199.63412109 188.77734375 196.25537109 C188.78644775 195.22033447 188.79555176 194.18529785 188.80493164 193.11889648 C188.8074292 192.30928467 188.80992676 191.49967285 188.8125 190.66552734 C188.81773682 189.83287354 188.82297363 189.00021973 188.82836914 188.14233398 C188.93127667 186.18770311 188.93127667 186.18770311 187.71484375 185.19287109 C186.09226831 185.09370539 184.46544544 185.06207333 182.83984375 185.06005859 C181.855 185.05876953 180.87015625 185.05748047 179.85546875 185.05615234 C178.30085938 185.06195313 178.30085938 185.06195313 176.71484375 185.06787109 C175.6784375 185.06400391 174.64203125 185.06013672 173.57421875 185.05615234 C172.589375 185.05744141 171.60453125 185.05873047 170.58984375 185.06005859 C169.67976563 185.06118652 168.7696875 185.06231445 167.83203125 185.06347656 C165.72955895 184.95727101 165.72955895 184.95727101 164.71484375 186.19287109 Z M250.71484375 190.19287109 C249.71217211 191.3181937 248.7388981 192.46971843 247.77734375 193.63037109 C235.64108759 207.59199911 222.00426852 214.60043867 204.71484375 220.19287109 C204.70026123 220.9135376 204.68567871 221.6342041 204.6706543 222.37670898 C204.59577416 225.67011196 204.49924534 228.96254545 204.40234375 232.25537109 C204.36850586 233.9559668 204.36850586 233.9559668 204.33398438 235.69091797 C204.08137806 243.56764224 203.11957543 248.58577358 198.71484375 255.19287109 C205.00327545 253.18462622 205.00327545 253.18462622 211.02734375 250.50537109 C219.78409501 247.38856132 227.58367531 248.98142145 235.84765625 252.74755859 C237.32878906 253.46298828 237.32878906 253.46298828 238.83984375 254.19287109 C240.86211982 255.13287379 242.885501 256.07050389 244.91015625 257.00537109 C246.2252417 257.63378906 246.2252417 257.63378906 247.56689453 258.27490234 C249.63204468 259.32386631 249.63204468 259.32386631 251.71484375 259.19287109 C251.71484375 236.42287109 251.71484375 213.65287109 251.71484375 190.19287109 C251.38484375 190.19287109 251.05484375 190.19287109 250.71484375 190.19287109 Z M-55.28515625 222.19287109 C-55.30578125 225.47224609 -55.32640625 228.75162109 -55.34765625 232.13037109 C-55.35676025 233.16540771 -55.36586426 234.20044434 -55.37524414 235.2668457 C-55.3777417 236.07645752 -55.38023926 236.88606934 -55.3828125 237.72021484 C-55.38804932 238.55286865 -55.39328613 239.38552246 -55.39868164 240.2434082 C-55.50158917 242.19803907 -55.50158917 242.19803907 -54.28515625 243.19287109 C-52.66258081 243.2920368 -51.03575794 243.32366886 -49.41015625 243.32568359 C-48.4253125 243.32697266 -47.44046875 243.32826172 -46.42578125 243.32958984 C-44.87117188 243.32378906 -44.87117188 243.32378906 -43.28515625 243.31787109 C-42.24875 243.32173828 -41.21234375 243.32560547 -40.14453125 243.32958984 C-39.1596875 243.32830078 -38.17484375 243.32701172 -37.16015625 243.32568359 C-36.25007813 243.32455566 -35.34 243.32342773 -34.40234375 243.32226562 C-32.29987145 243.42847118 -32.29987145 243.42847118 -31.28515625 242.19287109 C-31.19846193 240.7041525 -31.17812131 239.2114261 -31.1875 237.72021484 C-31.18999756 236.91060303 -31.19249512 236.10099121 -31.19506836 235.2668457 C-31.20417236 234.23180908 -31.21327637 233.19677246 -31.22265625 232.13037109 C-31.24328125 228.85099609 -31.26390625 225.57162109 -31.28515625 222.19287109 C-39.20515625 222.19287109 -47.12515625 222.19287109 -55.28515625 222.19287109 Z M164.71484375 222.19287109 C164.69421875 225.47224609 164.67359375 228.75162109 164.65234375 232.13037109 C164.64323975 233.16540771 164.63413574 234.20044434 164.62475586 235.2668457 C164.6222583 236.07645752 164.61976074 236.88606934 164.6171875 237.72021484 C164.61195068 238.55286865 164.60671387 239.38552246 164.60131836 240.2434082 C164.49841083 242.19803907 164.49841083 242.19803907 165.71484375 243.19287109 C167.33741919 243.2920368 168.96424206 243.32366886 170.58984375 243.32568359 C171.5746875 243.32697266 172.55953125 243.32826172 173.57421875 243.32958984 C175.12882812 243.32378906 175.12882812 243.32378906 176.71484375 243.31787109 C177.75125 243.32173828 178.78765625 243.32560547 179.85546875 243.32958984 C180.8403125 243.32830078 181.82515625 243.32701172 182.83984375 243.32568359 C183.74992187 243.32455566 184.66 243.32342773 185.59765625 243.32226562 C187.70012855 243.42847118 187.70012855 243.42847118 188.71484375 242.19287109 C188.80153807 240.7041525 188.82187869 239.2114261 188.8125 237.72021484 C188.81000244 236.91060303 188.80750488 236.10099121 188.80493164 235.2668457 C188.79582764 234.23180908 188.78672363 233.19677246 188.77734375 232.13037109 C188.75671875 228.85099609 188.73609375 225.57162109 188.71484375 222.19287109 C180.79484375 222.19287109 172.87484375 222.19287109 164.71484375 222.19287109 Z M207.71484375 319.19287109 C208.7200371 321.93430751 209.36626205 323.00257086 211.96875 324.42333984 C217.776851 326.05093002 224.9571548 326.46643283 230.46484375 323.69287109 C231.20734375 323.19787109 231.94984375 322.70287109 232.71484375 322.19287109 C232.71484375 320.87287109 232.71484375 319.55287109 232.71484375 318.19287109 C223.73149526 313.50590667 216.35512635 314.07270363 207.71484375 319.19287109 Z M116.71484375 361.19287109 C116.57554082 370.06829967 116.46907085 378.94334934 116.40397072 387.81963444 C116.3727182 391.94175519 116.33035949 396.06312554 116.26220703 400.18481445 C116.19679309 404.1660081 116.16109201 408.14648216 116.14558029 412.12817192 C116.13453302 413.6436438 116.11295925 415.15907831 116.08046341 416.67424202 C115.61577259 426.23853763 115.61577259 426.23853763 119.56396484 434.61645508 C121.68287693 436.64900441 122.84598325 437.23658426 125.71484375 438.19287109 C125.71484375 414.10287109 125.71484375 390.01287109 125.71484375 365.19287109 C119.76913899 361.02749145 119.76913899 361.02749145 116.71484375 361.19287109 Z M318.3203125 363.47412109 C317.15564453 363.97814453 315.99097656 364.48216797 314.79101562 365.00146484 C313.4947299 365.5651249 312.19850793 366.1289316 310.90234375 366.69287109 C310.24258545 366.9792041 309.58282715 367.26553711 308.90307617 367.56054688 C298.57159872 372.04497389 288.27145826 376.59800757 277.98397827 381.18234253 C275.7110728 382.19455043 273.43735693 383.20491376 271.16333008 384.21459961 C270.41382584 384.5474144 269.66432159 384.88022919 268.8921051 385.22312927 C267.38761422 385.89114834 265.88308765 386.55908704 264.37852478 387.22694397 C259.98678207 389.17798748 255.60134336 391.14241691 251.22015381 393.11703491 C248.49101297 394.34364216 245.75670618 395.55838915 243.02099609 396.77026367 C241.75501341 397.33411411 240.49123979 397.9029567 239.22998047 398.47729492 C229.63524652 402.84267767 222.09692857 406.07492659 211.84375 402.30224609 C210.12028328 401.57057379 208.39750781 400.83676793 206.68780518 400.07348633 C204.52039034 399.1060784 202.34120961 398.16898682 200.15966797 397.23388672 C194.97633101 395.00222512 189.81423664 392.72358644 184.65234375 390.44287109 C182.90571176 389.6743855 181.15896743 388.90615518 179.41210938 388.13818359 C172.26721121 384.99271366 165.12632354 381.84083057 158.02001953 378.60888672 C157.09967422 378.19104919 156.17932892 377.77321167 155.23109436 377.3427124 C153.46476903 376.5393372 151.69992162 375.73270261 149.93675232 374.92242432 C149.1488179 374.5640448 148.36088348 374.20566528 147.54907227 373.83642578 C146.85491714 373.5182489 146.16076202 373.20007202 145.4455719 372.87225342 C143.71444252 372.07107186 143.71444252 372.07107186 141.71484375 372.19287109 C141.71484375 396.61287109 141.71484375 421.03287109 141.71484375 446.19287109 C168.39634959 452.59643249 193.02198265 456.4190658 220.15234375 456.38037109 C221.33429825 456.37946472 221.33429825 456.37946472 222.54013062 456.37854004 C275.41236707 456.33197075 275.41236707 456.33197075 321.86230469 434.55371094 C326.58247096 428.8795674 325.45018662 421.38176003 325.30078125 414.41552734 C325.28957722 412.87855187 325.28104274 411.34155482 325.27505493 409.80455017 C325.25225062 405.7779016 325.19340346 401.75257148 325.12683105 397.72644043 C325.06522481 393.61061434 325.03800106 389.49457318 325.0078125 385.37841797 C324.9436489 377.31596695 324.84137512 369.25458347 324.71484375 361.19287109 C322.55316021 361.19287109 320.24360213 362.6412159 318.3203125 363.47412109 Z " fill="#000000" transform="translate(134.28515625,-0.19287109375)"/>
</svg>
